<svg width="1920" height="1080" viewBox="0 0 1920 1080" fill="none" xmlns="http://www.w3.org/2000/svg">
<rect width="1920" height="1080" fill="white"/>
<path fill-rule="evenodd" clip-rule="evenodd" d="M64.0002 284.507L0.000183105 273.362V540L-5.72205e-05 540V706.649L63.9999 734.458C66.1848 735.393 68.4443 736.362 70.7759 737.362C136.74 765.645 260.37 818.653 384 834.447C512 851.425 640 828.511 768 778.828C805.087 764.252 842.174 747.429 879.26 730.606C970.174 689.366 1061.09 648.127 1152 639.989C1253.46 630.907 1354.93 664.365 1456.39 697.823C1482.93 706.574 1509.46 715.324 1536 723.314C1664 761.851 1792 784.765 1856 795.493L1920 806.638L1920 540V373.351L1856 345.542C1853.82 344.607 1851.56 343.638 1849.22 342.638C1783.26 314.355 1659.63 261.347 1536 245.553C1408 228.575 1280 251.489 1152 301.172C1114.91 315.748 1077.83 332.571 1040.74 349.394C949.827 390.634 858.913 431.873 768 440.011C666.537 449.093 565.073 415.635 463.61 382.177C437.073 373.426 410.537 364.676 384 356.686C256 318.149 128 295.235 64.0002 284.507Z" fill="#F2F2F2"/>
</svg>
